<svg xmlns="http://www.w3.org/2000/svg" xmlns:xlink="http://www.w3.org/1999/xlink" data-name="Layer 1" viewBox="0 0 128 128"><defs><radialGradient id="a" cx="27.5" cy="121.5" r="148.5" gradientUnits="userSpaceOnUse"><stop offset="0" stop-color="#ffd676"/><stop offset=".25" stop-color="#f2a454"/><stop offset=".38" stop-color="#f05c3c"/><stop offset=".7" stop-color="#c22f86"/><stop offset=".96" stop-color="#6666ad"/><stop offset=".99" stop-color="#5c6cb2"/></radialGradient><radialGradient id="d" cx="13.87" cy="303.38" r="185.63" xlink:href="#a"/><clipPath id="b"><rect width="128" height="128" fill="none" rx="24" ry="24"/></clipPath><clipPath id="c"><circle cx="82" cy="209" r="5" fill="none"/></clipPath></defs><g clip-path="url(#b)"><circle cx="27.5" cy="121.5" r="148.5" fill="url(#a)"/></g><g clip-path="url(#c)"><circle cx="13.87" cy="303.38" r="185.63" fill="url(#d)"/></g><circle cx="82" cy="46" r="5" fill="#fff"/><path fill="#fff" d="M64 48a16 16 0 1 0 16 16 16 16 0 0 0-16-16Zm0 24a8 8 0 1 1 8-8 8 8 0 0 1-8 8Z"/><rect width="64" height="64" x="32" y="32" fill="none" stroke="#fff" stroke-miterlimit="10" stroke-width="8" rx="12" ry="12"/></svg>