<?xml version="1.0" standalone="no"?>
<!DOCTYPE svg PUBLIC "-//W3C//DTD SVG 20010904//EN"
 "http://www.w3.org/TR/2001/REC-SVG-20010904/DTD/svg10.dtd">
<svg version="1.0" xmlns="http://www.w3.org/2000/svg"
 width="214.000000pt" height="235.000000pt" viewBox="0 0 214.000000 235.000000"
 preserveAspectRatio="xMidYMid meet">
<metadata>
Created by potrace 1.16, written by Peter Selinger 2001-2019
</metadata>
<g transform="translate(0.000000,235.000000) scale(0.100000,-0.100000)"
fill="#000000" stroke="none">
<path d="M0 1175 l0 -1175 527 0 528 0 -196 118 c-107 64 -322 193 -477 286
l-282 170 2 565 3 565 145 81 c80 45 255 143 390 219 305 173 316 179 375 210
l48 26 56 -32 c85 -48 376 -215 466 -268 44 -25 122 -70 173 -98 50 -29 133
-75 182 -103 l90 -52 -2 -570 -3 -569 -255 -145 c-140 -80 -356 -203 -480
-274 l-225 -129 538 0 537 0 0 1175 0 1175 -1070 0 -1070 0 0 -1175z"/>
<path d="M1225 1280 c-54 -71 -101 -130 -105 -130 -5 0 -32 34 -62 75 -29 41
-59 75 -65 75 -7 0 14 -38 47 -84 33 -46 60 -88 60 -93 0 -5 -27 -46 -60 -91
-33 -45 -60 -84 -60 -87 0 -20 26 7 76 75 31 44 60 80 64 80 4 0 33 -36 64
-80 50 -69 76 -95 76 -74 0 3 -25 39 -56 80 -30 42 -58 82 -61 89 -2 8 38 77
91 155 53 77 95 140 92 140 -2 0 -48 -58 -101 -130z"/>
<path d="M410 1137 c0 -91 -3 -172 -6 -181 -4 -10 -1 -16 10 -16 13 0 16 22
18 162 l3 163 127 -185 c71 -102 139 -198 154 -215 14 -16 -44 73 -128 200
-84 126 -159 231 -165 233 -10 3 -13 -34 -13 -161z"/>
<path d="M710 1120 l0 -180 127 0 c69 0 123 3 120 7 -4 3 -40 5 -81 4 -41 -1
-91 1 -110 5 l-37 6 3 77 3 76 103 3 c56 1 102 6 102 10 0 4 -46 7 -102 7
l-103 0 -3 73 -3 72 110 0 c62 0 112 4 116 10 4 6 -38 10 -119 10 l-126 0 0
-180z"/>
<path d="M1280 1290 c0 -6 28 -10 65 -10 l65 0 0 -170 c0 -107 4 -170 10 -170
6 0 10 63 10 170 l0 170 65 0 c37 0 65 4 65 10 0 6 -53 10 -140 10 -87 0 -140
-4 -140 -10z"/>
<path d="M1685 1027 c-21 -16 -13 -34 21 -47 37 -14 30 -34 -8 -26 -24 5 -29
3 -21 -5 16 -16 57 -7 61 13 2 12 -6 21 -22 28 -34 12 -34 34 -1 28 20 -4 23
-3 14 8 -14 17 -21 17 -44 1z"/>
<path d="M1630 989 c0 -36 -2 -41 -20 -36 -11 3 -18 1 -14 -4 9 -15 41 -10 48
7 10 25 7 74 -4 74 -5 0 -10 -19 -10 -41z"/>
</g>
</svg>
